<svg xmlns="http://www.w3.org/2000/svg" viewBox="0 0 210 210"><g fill="#5ac6cc"><path d="M.6 136.8c-.03.3 0 .46 0 0zM132.53.3h.23c.18-.08.34-.15.5-.2l-.73.2zm39.74.7c.1 0 .17 0 .26.02-.02-.05.04-.1-.26-.03zM41.5 1.08c-.36 0-.56.04-.7.07l.7-.07zM21.58 204.25s-.1-.05-.16-.1c.12.1.24.2.36.28l-.2-.18zm-.78-.33c-.78-.53.27.04.62.24-.8-.64-1.7-1.13-2.57-1.7-.1.15 1.6 1.15 1.94 1.46zm132.34 5.58l-.4.05c.16 0 .3-.03.4-.05zM45.44 7.06l-.6.03c.3 0 .5-.1.6-.1zm86.98 202.32l-.23.2c.2-.1.2-.15.2-.2zM133.26.1l.3-.08c-.1.02-.2.04-.3.08zm70.9 21.16c-.04.04-.04.14-.02.25l.06.1-.04-.3zm-13.4 178.7h.12l.5-.54c-.3.24-.5.42-.63.55zm18.44-128.2c.02.03.04.15.06.16.07-.83.08-3.1.08-5.97l-.24-.18.1 6z"/><path d="M203.65 126.42l.48-5.33c.22 17.1-.26 25.1.12 39.7l-.1-.8c-.06 1 .2 1.9.28 5.4.02.9.03 1.9.03 3.2-.1 1.1-.1 2.5-.32 4.1-.46 3.1-1.53 7.3-4.24 11.9h-.04c-.16.3-.2.5-.33.7s-.33.5-.77 1.1l.34-.5c.2-.3.5-.7.7-1.1l.95-1.6c-.46 1-.74 2-1.33 3-.54 1-1.06 2.1-2 3.3-.43.4-.64.6-.74.6l-.68.9c-.46.5-1.07 1.2-1.68 1.9-.58.7-1.3 1.3-1.8 1.7l-.84.7s-.12.1-.3.2l-.67.4-.9.5c-.8.7-.9 1.1-1.5 1.7l-1.3 1-1.2.7c-.5.2-1.1.5-1.8.8 1.1-.3.5.1-.4.5-.8.5-1.9.8-1.5.8-.3 0-1 .2-1.5.3-.4.1-.9.4-1.4.5l-1.6.4c-.6.1-1.1.3-1.7.43l-1.8.3-1.7.4-1.5.12c-.9.1-1.7.2-2.1.3 0 0 .9 0 2.4.1 1.4.1 3.4-.18 5.4-.36l3.1-.55c1-.2 2-.5 3-.8 1-.2 1.8-.6 2.5-.8l1.9-.7c-4.9 2.2-1.2.7-.2.4l.3-.26c2.8-1.6 3-1.3 4.4-2.2 0-.1 0 0-.1 0l-.1.1c-.13.04-.1-.04 0-.2-.1 0 0-.1.7-.6l-.1.1c.5-.47 1.3-.96 2-1.57l1.66-1.5.2.2c.76-1 3.7-3.8 6.1-7.2.6-.9 1.27-1.7 1.76-2.6l1.4-2.6c.8-1.64 1.3-3.05 1.6-3.8 1.2-3.15 1.7-7.3 1.85-11.46.1-6.5.3-3.2.53-6.5.2-4.1-.22.86-.23-.8l.3-4.9c.02 2.88.2 1.3.3.8 0-4.2.5-10.9 0-12.2.2-5.7.4-5.7.4-8.13-.1.8-.2 2.4-.3 2.4.2-2.3-.05-1.1-.1-.2-.2-3.5.9-18.1.35-18.8h.1c-.4-.8-.8.5-1-1.94l.2-1.7-.16-2.42c.1-1.6.2-.8.3-.8-.2-4 0-9.5.1-14.4l-1.1 5.1c.2-4.1.7-11.4.4-12.2l.36-2.4c.7-8.2-.3-5.7-.1-8.98l.4-4.1v4.1c.2-4.1.36-5.7.6-9v-.07c0 .27-.02.4-.04.4v-.53c-.2-.5-.35-2.6-.34-5.5.05-4.1-.24-7.24.2-13.8l-.4-1.6.2-4.9h.3l.1 20 .1.1c0-3.63-.1-7.8-.1-10.2.1-1.2.4-4.2.6-2L210 51c0-6.1.1-9.1-.1-12.5 0-.82-.2-1.65-.3-2.54-.2-.84-.2-1.8-.5-2.83l-1-3.4c-.45-1.26-.86-2.7-1.5-4.3l.2.6.1.55c-1.1-2.43-2.4-4.76-2.64-5.5-.5-.85-1-1.8-1.6-2.6l-1.8-2.5c-.6-.8-1.3-1.5-1.9-2.26l-1-1.1c-.4-.3-.7-.7-1.1-1-2.7-2.7-5.6-4.7-7.8-6.2l-.6-.1-.6-.1c-.8-.4-1.7-1-2.5-1.5-.9-.5-1.7-.8-2.2-.7l-1.8-.5c-.4-.1-.9-.2-1.2-.3l-.6-.1c-1.2-.27-2.1-.5-3.1-.66-1-.14-2-.3-3.37-.6-.2-.04-.3-.1-.5-.1-2.7-.24-2.7-.15-2.8-.07h-.5c-.4 0-1.2-.1-2.7-.1-1.9-.3-2 .5-4.8.4L159 .8c-5.05-.3-5.92.23-13.23.24-3.5-.2-5.2-.65-2.88-1.06-3.2.5-1.5.37-5.7.6-.7-.2-.2-.24.7-.42-3.8-.24-2.4.18-5.2.17-.8.4-1.8 1-2.7 1l1.1.14c-3 .2-6.3.3-9.8.1l.1-.2-3.8.1-.3-.27-5.3.1.7.05c-1.3 0-5.4.1-7.7 0l.1-.17c-6.6-.4-12.1.15-19.8.2l1-.28c-2.6-.3-.7.4-3.9.2l-.1-.3c-2.8.44-3.6-.1-5.5-.27l.9.45-3.6-.1C70.4.98 71.9.56 72.5.3l-2.7.36-.5-.4c-1.96.48-1.96-.06-5.4.2-.3-.16.57-.24-.6-.3L57.6.7l3.44-.24-.42.58c-3.57.44-4.83-.06-7.38.1L55 .98c-4.16.14-4.38-.1-6.73-.24.73.1 1.84.27.16.35-1.24 0-.67-.3-1.84-.3-.2.2-1 .3-2.1.4h-4.1c0-.1.1-.1.3-.2-.8.1-1.2.2-2.4.2l.7-.5-1.2.2-1.2.4c-.9 0-1.9.2-2.6.4-.8.2-1.3.3-1.2.2l.9-.3-2 .4-2 .5-2.2.7c-.8.3-1.5.5-2.2.8-.7.3-1.3.6-1.9.8l-1.3.6-.5.2-.3-.2c-.4.5-1.9 1.3-3.2 2.1-1.2.8-2.3 1.6-1.9 1.7-.3.1-.6.3-.9.6l-1 .9c-.7.7-1.5 1.3-2.2 2-1.3 1.34-2.2 2.4-2 1.62-.7.76-1.3 1.6-1.8 2.3-.5 1-1 1.7-1.5 2.4-.8 1.6-1.7 3-2.3 4.6l-1.1 2.4-.7 2.9c-.4.9-.6 1.94-.9 3-.3 1.06-.7 2.2-.8 3.43-.2.42-.3.95-.5 1.56-.1.6-.3 1.3-.3 2.1-.1 1.5-.3 3.35-.26 5v10.3c.2 11.7.4 19.24.6 31.2-.8 7.2.2 17.94-.2 25.7l.3 2.1c-.5 5.15.1 13-.4 20.23.1 1.74.1 2.66.1 3.1 0-.35.04-.85.24-1-.1 2.04.1 6.24-.3 5.94v-.6c-.4-.3.2 6.3-.13 8.6l.5-1.3-.1 3.9v-1.1c.23 4.2.3 7.9.34 11.2v5.9l.03 1.3.1 2.4c0 .8.2 1.6.3 2.4.2.8.2 1.6.4 2.4l.6 2.4c.2.8.4 1.6.7 2.4l1 2.5c.4.8.8 1.6 1.3 2.5l.6 1.2.8 1.3c.6.8 1.1 1.7 1.8 2.5-1.7-1.6 2.2 2.5 1.9 3 1.2 1.8 2.6 3.3 4.1 4.4 1.5 1.2 3.1 2.1 4.6 3 0-.1 0-.1.2 0l.2.2.6.3 1.8 1.1.9.6.9.4.9.43c-3.55-1 4.2 1.4 1 .45 3.6 1.7 7.7 3.1 12.2 3.6 4.6.4 8.9.2 13.34.24 8.96 0 18.2-.1 26.9 0l-.8-.16c4.4.04 9.9-.16 13.3.1 3.34.3 7.3-.4 8.6-.4 3.7-.3 7 .3 5.43.3 4-.1 7.6-.7 13.1-.5 1.9.56 14.9-.5 15.06.1l.05-.06c7 .4 13.6-.3 21.1.1l-.4.05 15.3-1.8-4.3-2-13.2-1.65-35.9.4-28.6-.65-34.84.1c-2.18 0-4.36 0-6.5.05-1.05 0-2.2 0-3.14-.06-.94 0-1.9-.1-2.8-.1-3.7-.4-7.1-1.2-9.83-2.36-.7-.2-1.3-.6-1.9-.9-.6-.3-1.2-.6-1.77-.8l-2.7-1.6c-.7-.5-1.22-.9-1.6-1.2l-.6-.4-.6-.4c-.4-.2-.8-.6-1.3-.9l-1.2-.9-.45-.3-.2-.2c-2.02-2.4-4-5.15-5.7-8.2-1.6-3.1-2.82-6.47-3.6-10l-.43-2.7c-.1-.45-.1-.9-.16-1.36l-.1-1.4-.1-1.4c-.07-.5 0-1 0-1.5V164c0-3.9 0-7.8.13-11.5l-.4-.3c0-4.13.23-3.85.3-4.9L7 89.2c0-9.54-.04-19-.05-28.2L7 47.34c0-1.14 0-2.26.1-3.37V42.3l.1-1.5c.02-2 .4-4 .8-5.9.25-.7.6-1.83.93-3.1l.7-2 .4-1 .5-1 1-2c.36-.6.75-1.2 1.1-1.7.34-.56.6-1 .9-1.4.3-.4.6-.7.8-.9 2.8-4.3 6.8-8.07 11.5-10.66 4.6-2.5 9.9-3.9 15.1-4.1l-.4.07h.76c.5 0 1.1-.1 1.7-.1h2.7c.3 0 .3.1.1.1 6-.3 15.5 0 22.9.1l-.4.1c21.5.1 42.2-.1 62.9-.2l31.1-.1h3.9c1.3 0 2.7 0 3.8.1 1.2.1 2.4.1 3.6.3 1.2.2 2.4.3 3.6.7 4.7 1.1 9.1 3.3 13 6.3 3.5 2.9 6.7 6.4 9.1 10.6 2.4 4.2 4.1 8.9 4.7 13.9.1 1.3.1 2.5.2 3.8v12.6c0 5.7 0 11.4-.2 17.1-.4 4.2-.1 50.2.1 54.2z"/><path d="M196.68 190.44l.1-.14c-.14-.1-.23.14-.1.14zm12.05-91.3v.3l.23-1.14-.23.83zm.14 60.82c.05-2.74 0-2.86-.05-2.48 0 1 0 1.86.05 2.48zM180.3 202.6c-1.24.46-.74.38.04.2l2.17-.8-2.2.6zm6.08-.15l-.34.3c.74-.38.68-.4.34-.3z"/></g><path fill="#7f3f98" d="M177.86 67.68c-1.4-2.28-5.66-1.72-8.76-2.3h-6.92c.88-2.2 2.13-4.03 3.23-6 .4-2.73 1.6-4.56 1.4-7.84.8-1.03 1.1-2.6 1.9-3.68.7-.9 1.5-2.97.5-4.15-.3-1.3-1.8-1.5-3.7-1.3-.5.2-1 .5-1.3.9-2.8 2.7-4.8 6.3-7.8 8.8 0 .1-.4 0-.4 0-.5.1-.2.3-.4.5-.9.6-1.6 1-2.3 1.4-1.7 1.1-3.4 2.8-5.5 3.3-3.3-1.3-7.2-2-11.5-2.3-7.2.7-14.3 1.4-18.9 4.6-5.7 2.2-9.2 6.5-13.4 10.2-.3 2-2.1 2.5-2.3 4.6 0 .3 0 .6-.4.5.3 1.5-.3 2.2-.4 3.3 0 .8 1.2 2.7 0 3.2-5.1-.7-9.3-3.9-13.4-6-4.5-2.2-9.1-3.7-12.9-6.9-4.5-2-7.8-5.1-11.1-8.3-1.3-1.9-3.4-3.1-4.1-5.5-2.3-1-1.1-5.6-4.6-5.5-1.9-.2-2.1 1.3-2.8 2.3-.4 1.4-2.2 1.5-2.3 3.3 0 .3-.1.6-.5.5-1 6.8-3.3 12.4-3.2 20.3.8 2.6 2.2 4.6 3.7 6.5-2.6.3-4.4 1.4-5.5 3.2-.3 6.6 2.4 10.2 4.7 14.2.8 2.4 2.2 4.3 3.7 6 .1 1.5 1.3 1.8 1.8 2.8.1.7.8.8 1 1.4-.2.7 1.8 1.2.5 1.4-2.5.8-6.3.4-7.8 2.3-.7 1.7-.7 5.2 0 6.9.2 1.5 1.8 1.6 1.9 3.2 3.1 2.6 6.75 4.6 10.17 6.9 3.6 1.1 7.55 1.7 11.5 2.3-.6 2.2-2.1 3.4-3.7 4.6-4.8 2.4-11.5 3-17 4.6-3.4.3-5.9 1.5-9.65 1.4-2.06.8-5.3.5-6.9 1.4-.76.4-.64.6-1.4 1.4-.8 2.6.7 4.6 2.8 5.5-.04 1.6 1.35 1.7 2.3 2.3.56 1.1 1.6 1.8 2.8 2.3 3.4 2.9 7.9 4.7 12 6.9 5.1 1.2 10.2 2.4 15.7 3.3 5.5.7 11.8.8 17.5 1.4h6c3.1.8 7.6.3 11.5.5.6-.6 2-.4 3.2-.4 3.27-1.63 7.47-2.4 10.17-4.6 3.6-1.5 6.17-4 9.7-5.5 5.4-4.7 12-8.2 15.7-14.7 1.3-1.16 2.2-2.7 2.8-4.6 1.6-.96 2.4-2.8 3.63-4.1 2.5-2.6 4.4-5.8 6.43-8.8 2-3.1 3.6-6.55 5.58-9.7 0-2.5 1.9-3 1.9-5.5 1.2-1.4 1.1-4.1 2.3-5.53-.2-1.6.2-2.6.5-3.7.3-8-.3-15.1-1.9-21.2 3.6-1 7.3-1.9 10.1-3.7 3.3-1.2 6.2-3.6 5.08-7.85zm-21.2 25.35c-.97 5.34-3.85 8.77-6.47 12.44.3 2.36-.7 3.35-.5 5.53-1 1.94-1.8 4.06-2.3 6.45-1.3 1.66-2.1 3.77-3.3 5.54-2.3 3.4-4.9 6.5-7.4 9.6-2.4 3.5-5.7 6-8.3 9.2-2.6 3.1-5.9 5.5-8.8 8.3-3 1-5.6 2.5-7.9 4.1-1.5.5-2.9 1.1-4.2 1.8-1.1.9-3.1.9-4.2 1.8-6.8.9-14.3 1-22.2.9-6.4-.7-13.2-1-18.9-2.3-5.7-1.2-9.4-4.5-14.3-6.5 1-1.5 3.9-1 6-1.4.2-1 2.4 0 2.8-.9 1.6.4 1.8-.7 3.2-.5 3.5-1.3 7.6-1.9 10.6-3.7 1.7-.9 2.5-2.7 4.1-3.7.2-1.2.6-2.2 1.4-2.8.3-1.7 1.2-2.8.9-5.1.7-1.3 1.8-2.1 1.8-4.2-.5-1-.8-2-1.9-2.3-.2-1.3-2.4-.5-2.8-1.4-1.6.2-2.6-.2-3.7-.5-.9-.3-3 .6-3.2-.5-5.2-.2-8.1-2.7-11.5-4.6 2.7-1.7 6.4-2.2 8.3-4.6 3.2-.5 6.6-.8 6.9-4.2 0-4.5-4.8-4.1-8.3-5.1-4.8-4.1-7.4-10.4-11.1-15.7 1.5-1 3.5-1.4 4.6-2.8 2.8.4 3.4-1.5 4.1-3.2.1-3-2.1-3.8-3.7-5.1-1.6-1.3-3-2.8-4.2-4.6 0-5.1-.17-10.3.43-14.7.4-.1.4.2.42.4 1.4 2.7 3.5 4.8 5.1 7.4 3.3 2.2 5.7 5.3 9.7 6.9 2.8 2.6 6.9 3.9 9.7 6.5 3.7 1.6 7.2 3.5 10.6 5.5 4.1 1.2 6.5 4.2 12.4 3.7 1.3-.6 2.5-1.2 3.7-1.9 1.6-2.8-.35-6.7.9-10.1 1.6-4.1 5-6.4 7.9-9.2 1.8-.96 3.4-2.1 5.1-3.2 2.12-.6 4.2-1.35 6-2.3 2.3-.1 4.4-.5 6.4-.9h7.9c1.56.32 3 .74 4.6.92 1.3.86 2.4 1.95 4.2 2.3 4.9 4.32 7.9 10.56 8.8 18.9-.76 3.02.3 5.45 0 9.23zM158.48 58c-.82 2.12-1.45 4.4-3.7 5.07-.1-.66-.76-.78-.92-1.38-.08-1.3 1.3-1.2 1.84-1.9 1.02-.5 1.53-1.6 2.77-1.9-.05-.6.66-.3 0 0zm-34.14 18.9c1 .83 1.76 1.92 3.23 2.3.6 1.38 1.95 2.04 3.68 2.3.3-.93 2.15-.3 2.3-1.38 1.1-.14 1.04-1.42 1.85-1.84-.12-3.42-.8-6.27-2.3-8.3-4.72-2.63-10.44.25-8.77 6.9z"/></svg>