<svg xmlns="http://www.w3.org/2000/svg" viewBox="0 0 210 210"><g fill="#5ac6cc"><path d="M.6 136.8c-.03.3 0 .46 0 0zM132.53.3h.23c.18-.08.34-.15.5-.2l-.73.2zm39.74.7c.1 0 .17 0 .26.02-.02-.05.04-.1-.26-.03zM41.5 1.08c-.36 0-.56.04-.7.07l.7-.07zM21.58 204.25s-.1-.05-.16-.1c.12.1.24.2.36.28l-.2-.18zm-.78-.33c-.78-.53.27.04.62.24-.8-.64-1.7-1.13-2.57-1.7-.1.15 1.6 1.15 1.94 1.46zm132.34 5.58l-.4.05c.16 0 .3-.03.4-.05zM45.44 7.06l-.6.03c.3 0 .5-.1.6-.1zm86.98 202.32l-.23.2c.2-.1.2-.15.2-.2zM133.26.1l.3-.08c-.1.02-.2.04-.3.08zm70.9 21.16c-.04.04-.04.14-.02.25l.06.1-.04-.3zm-13.4 178.7h.12l.5-.54c-.3.24-.5.42-.63.55zm18.44-128.2c.02.03.04.15.06.16.07-.83.08-3.1.08-5.97l-.24-.18.1 6z"/><path d="M203.65 126.42l.48-5.33c.22 17.1-.26 25.1.12 39.7l-.1-.8c-.06 1 .2 1.9.28 5.4.02.9.03 1.9.03 3.2-.1 1.1-.1 2.5-.32 4.1-.46 3.1-1.53 7.3-4.24 11.9h-.04c-.16.3-.2.5-.33.7s-.33.5-.77 1.1l.34-.5c.2-.3.5-.7.7-1.1l.95-1.6c-.46 1-.74 2-1.33 3-.54 1-1.06 2.1-2 3.3-.43.4-.64.6-.74.6l-.68.9c-.46.5-1.07 1.2-1.68 1.9-.58.7-1.3 1.3-1.8 1.7l-.84.7s-.12.1-.3.2l-.67.4-.9.5c-.8.7-.9 1.1-1.5 1.7l-1.3 1-1.2.7c-.5.2-1.1.5-1.8.8 1.1-.3.5.1-.4.5-.8.5-1.9.8-1.5.8-.3 0-1 .2-1.5.3-.4.1-.9.4-1.4.5l-1.6.4c-.6.1-1.1.3-1.7.43l-1.8.3-1.7.4-1.5.12c-.9.1-1.7.2-2.1.3 0 0 .9 0 2.4.1 1.4.1 3.4-.18 5.4-.36l3.1-.55c1-.2 2-.5 3-.8 1-.2 1.8-.6 2.5-.8l1.9-.7c-4.9 2.2-1.2.7-.2.4l.3-.26c2.8-1.6 3-1.3 4.4-2.2 0-.1 0 0-.1 0l-.1.1c-.13.04-.1-.04 0-.2-.1 0 0-.1.7-.6l-.1.1c.5-.47 1.3-.96 2-1.57l1.66-1.5.2.2c.76-1 3.7-3.8 6.1-7.2.6-.9 1.27-1.7 1.76-2.6l1.4-2.6c.8-1.64 1.3-3.05 1.6-3.8 1.2-3.15 1.7-7.3 1.85-11.46.1-6.5.3-3.2.53-6.5.2-4.1-.22.86-.23-.8l.3-4.9c.02 2.88.2 1.3.3.8 0-4.2.5-10.9 0-12.2.2-5.7.4-5.7.4-8.13-.1.8-.2 2.4-.3 2.4.2-2.3-.05-1.1-.1-.2-.2-3.5.9-18.1.35-18.8h.1c-.4-.8-.8.5-1-1.94l.2-1.7-.16-2.42c.1-1.6.2-.8.3-.8-.2-4 0-9.5.1-14.4l-1.1 5.1c.2-4.1.7-11.4.4-12.2l.36-2.4c.7-8.2-.3-5.7-.1-8.98l.4-4.1v4.1c.2-4.1.36-5.7.6-9v-.07c0 .27-.02.4-.04.4v-.53c-.2-.5-.35-2.6-.34-5.5.05-4.1-.24-7.24.2-13.8l-.4-1.6.2-4.9h.3l.1 20 .1.1c0-3.63-.1-7.8-.1-10.2.1-1.2.4-4.2.6-2L210 51c0-6.1.1-9.1-.1-12.5 0-.82-.2-1.65-.3-2.54-.2-.84-.2-1.8-.5-2.83l-1-3.4c-.45-1.26-.86-2.7-1.5-4.3l.2.6.1.55c-1.1-2.43-2.4-4.76-2.64-5.5-.5-.85-1-1.8-1.6-2.6l-1.8-2.5c-.6-.8-1.3-1.5-1.9-2.26l-1-1.1c-.4-.3-.7-.7-1.1-1-2.7-2.7-5.6-4.7-7.8-6.2l-.6-.1-.6-.1c-.8-.4-1.7-1-2.5-1.5-.9-.5-1.7-.8-2.2-.7l-1.8-.5c-.4-.1-.9-.2-1.2-.3l-.6-.1c-1.2-.27-2.1-.5-3.1-.66-1-.14-2-.3-3.37-.6-.2-.04-.3-.1-.5-.1-2.7-.24-2.7-.15-2.8-.07h-.5c-.4 0-1.2-.1-2.7-.1-1.9-.3-2 .5-4.8.4L159 .8c-5.05-.3-5.92.23-13.23.24-3.5-.2-5.2-.65-2.88-1.06-3.2.5-1.5.37-5.7.6-.7-.2-.2-.24.7-.42-3.8-.24-2.4.18-5.2.17-.8.4-1.8 1-2.7 1l1.1.14c-3 .2-6.3.3-9.8.1l.1-.2-3.8.1-.3-.27-5.3.1.7.05c-1.3 0-5.4.1-7.7 0l.1-.17c-6.6-.4-12.1.15-19.8.2l1-.28c-2.6-.3-.7.4-3.9.2l-.1-.3c-2.8.44-3.6-.1-5.5-.27l.9.45-3.6-.1C70.4.98 71.9.56 72.5.3l-2.7.36-.5-.4c-1.96.48-1.96-.06-5.4.2-.3-.16.57-.24-.6-.3L57.6.7l3.44-.24-.42.58c-3.57.44-4.83-.06-7.38.1L55 .98c-4.16.14-4.38-.1-6.73-.24.73.1 1.84.27.16.35-1.24 0-.67-.3-1.84-.3-.2.2-1 .3-2.1.4h-4.1c0-.1.1-.1.3-.2-.8.1-1.2.2-2.4.2l.7-.5-1.2.2-1.2.4c-.9 0-1.9.2-2.6.4-.8.2-1.3.3-1.2.2l.9-.3-2 .4-2 .5-2.2.7c-.8.3-1.5.5-2.2.8-.7.3-1.3.6-1.9.8l-1.3.6-.5.2-.3-.2c-.4.5-1.9 1.3-3.2 2.1-1.2.8-2.3 1.6-1.9 1.7-.3.1-.6.3-.9.6l-1 .9c-.7.7-1.5 1.3-2.2 2-1.3 1.34-2.2 2.4-2 1.62-.7.76-1.3 1.6-1.8 2.3-.5 1-1 1.7-1.5 2.4-.8 1.6-1.7 3-2.3 4.6l-1.1 2.4-.7 2.9c-.4.9-.6 1.94-.9 3-.3 1.06-.7 2.2-.8 3.43-.2.42-.3.95-.5 1.56-.1.6-.3 1.3-.3 2.1-.1 1.5-.3 3.35-.26 5v10.3c.2 11.7.4 19.24.6 31.2-.8 7.2.2 17.94-.2 25.7l.3 2.1c-.5 5.15.1 13-.4 20.23.1 1.74.1 2.66.1 3.1 0-.35.04-.85.24-1-.1 2.04.1 6.24-.3 5.94v-.6c-.4-.3.2 6.3-.13 8.6l.5-1.3-.1 3.9v-1.1c.23 4.2.3 7.9.34 11.2v5.9l.03 1.3.1 2.4c0 .8.2 1.6.3 2.4.2.8.2 1.6.4 2.4l.6 2.4c.2.8.4 1.6.7 2.4l1 2.5c.4.8.8 1.6 1.3 2.5l.6 1.2.8 1.3c.6.8 1.1 1.7 1.8 2.5-1.7-1.6 2.2 2.5 1.9 3 1.2 1.8 2.6 3.3 4.1 4.4 1.5 1.2 3.1 2.1 4.6 3 0-.1 0-.1.2 0l.2.2.6.3 1.8 1.1.9.6.9.4.9.43c-3.55-1 4.2 1.4 1 .45 3.6 1.7 7.7 3.1 12.2 3.6 4.6.4 8.9.2 13.34.24 8.96 0 18.2-.1 26.9 0l-.8-.16c4.4.04 9.9-.16 13.3.1 3.34.3 7.3-.4 8.6-.4 3.7-.3 7 .3 5.43.3 4-.1 7.6-.7 13.1-.5 1.9.56 14.9-.5 15.06.1l.05-.06c7 .4 13.6-.3 21.1.1l-.4.05 15.3-1.8-4.3-2-13.2-1.65-35.9.4-28.6-.65-34.84.1c-2.18 0-4.36 0-6.5.05-1.05 0-2.2 0-3.14-.06-.94 0-1.9-.1-2.8-.1-3.7-.4-7.1-1.2-9.83-2.36-.7-.2-1.3-.6-1.9-.9-.6-.3-1.2-.6-1.77-.8l-2.7-1.6c-.7-.5-1.22-.9-1.6-1.2l-.6-.4-.6-.4c-.4-.2-.8-.6-1.3-.9l-1.2-.9-.45-.3-.2-.2c-2.02-2.4-4-5.15-5.7-8.2-1.6-3.1-2.82-6.47-3.6-10l-.43-2.7c-.1-.45-.1-.9-.16-1.36l-.1-1.4-.1-1.4c-.07-.5 0-1 0-1.5V164c0-3.9 0-7.8.13-11.5l-.4-.3c0-4.13.23-3.85.3-4.9L7 89.2c0-9.54-.04-19-.05-28.2L7 47.34c0-1.14 0-2.26.1-3.37V42.3l.1-1.5c.02-2 .4-4 .8-5.9.25-.7.6-1.83.93-3.1l.7-2 .4-1 .5-1 1-2c.36-.6.75-1.2 1.1-1.7.34-.56.6-1 .9-1.4.3-.4.6-.7.8-.9 2.8-4.3 6.8-8.07 11.5-10.66 4.6-2.5 9.9-3.9 15.1-4.1l-.4.07h.76c.5 0 1.1-.1 1.7-.1h2.7c.3 0 .3.1.1.1 6-.3 15.5 0 22.9.1l-.4.1c21.5.1 42.2-.1 62.9-.2l31.1-.1h3.9c1.3 0 2.7 0 3.8.1 1.2.1 2.4.1 3.6.3 1.2.2 2.4.3 3.6.7 4.7 1.1 9.1 3.3 13 6.3 3.5 2.9 6.7 6.4 9.1 10.6 2.4 4.2 4.1 8.9 4.7 13.9.1 1.3.1 2.5.2 3.8v12.6c0 5.7 0 11.4-.2 17.1-.4 4.2-.1 50.2.1 54.2z"/><path d="M196.68 190.44l.1-.14c-.14-.1-.23.14-.1.14zm12.05-91.3v.3l.23-1.14-.23.83zm.14 60.82c.05-2.74 0-2.86-.05-2.48 0 1 0 1.86.05 2.48zM180.3 202.6c-1.24.46-.74.38.04.2l2.17-.8-2.2.6zm6.08-.15l-.34.3c.74-.38.68-.4.34-.3z"/></g><path fill="#7f3f98" d="M177.38 116.53c-.08-15.92-2.28-31.83-2-47.43-.17-5.24-.58-10.2-1.02-15.15-.7-2-.74-4.65-1-7.07-1.74-1.13-1.5-4.24-3.05-5.55-2.8-1.55-7.9-.75-11.6-1.5-4.3-.18-8.3-.77-12.6-1.02-12.8-.6-26.4-.5-39.9-.5-13.3 0-26.3-.9-37.9-2.5H53.7c-.65.1-.7.7-1.52.5-3.97.3-7.16 1.3-10.6 2.1-1.4.8-2.8 1.6-4.55 2.1-.9 1.3-3.43 1-4.06 2.5-1.23 1.4 1.24 3 0 4.1v6c1.16.9.2 3.9.5 5.6v6.6c-.1 8.5.9 16 .5 24.7 3.12 18.4 2.5 43.5.52 62.6 1 3.9 2.4 7.4 3 11.6 1.7 3.2 2.2 7.5 4.5 10.1 3.3 1.4 8.2 1.3 12.6 1.5 2.5.7 4.4 2 7.5 2.1 18.9-1.4 36.5-1 56-1.5 18 1.6 38.6 1.3 55-1.5 1.3-.9.8-3.5 1.5-5-.4-2.5 1.3-3 1.5-5 .9-15.9 1.1-31.8 1-47.9zm-86.35-41.4c5.04-1 9.85-2.25 16.16-2 4.7.5 8.5 1.87 12.6 3.02.7 1.23-1.6 3.64 1 4.55v.5c.4.1 1 .02 1 .5 2.9.24 5.3 1.12 7.1 2.53 3 .36 3.5 3.16 7.5 2.52-.6 1.42-.6 3.5-.5 5.56 2.1 7.9 3.1 18.7 2 28.3-1.1 1.1-1.5 3-2.1 4.6-2.1 2.2-3.2 5.3-5.6 7.1-.7 1.6-1.7 2.7-3 3.6-.8 1.5-1.4 3-3.1 3.6-2 1.1-3.9.1-5.6-.5-3 1.1-6 2.1-8.1 4.1-5.5-.6-11-1.1-16.2-2-1.6-.9-3.3-1.8-5.6-2-1.5-1.3-3.3-2.4-5.6-3-.7-.8-2.3-.8-3-1.5-1.3-.2-1.6-1.5-3.1-1.5-.8-2.7-3-4.1-3.6-7-1.5-2.2-2.1-5.3-3-8-.3-9.5.6-17.9 2.5-25.2 2.3-3.9 5.1-7.2 7.5-11.1 1.7.2 2.4-.6 2.5-2 2 .4 2.9-.5 4.5-.5 1.7-.5 1.8-2.6 3-3.5zM79.93 57c-.8-1.75-.46-4.6-.5-7.07-.06-1.88 1.83-1.84 2-3.52 0-.5-.6-.4-1-.5.84-.9 4.65-.6 5.55 0 .87 3.6-2.36 3.1-3.53 4.6.06 1.1 2.14.2 3.03.5.2 5.7-.4 10 0 14.7h-3.03c-.05 1.6 1.52 1.5 3.03 1.5-.4 1.9.6 2.4.5 4.1-1.5 1-4.76.3-7.07.5-.6-3.9 1.6-9.1 1.1-14.6zm-4.55-10.6c.58-.08.9.1 1 .5 1.2 1.7.07 4.54-.5 6.06-1.16-1.2-.18-4.53-.5-6.56zm1 12.1c-.87-.45-1.1-1.56-1-3.02.88.47 1.1 1.58 1 3.03zm0 9.1c-.38.92-.54-.3-.5-1.02.4-.9.54.3.5 1.02zm-1 1.5c1.16-.15.55 1.47 1.5 1.53-.05 1.3-1.87 1.2-2.52.5.27-.73.75-1.26 1.02-2zm-15.66-8.07c.04-.7.08-1.4-.5-1.5-.5-4.88.86-9.4 0-13.12 1.66-1 5.1-.2 7.57-.5v7.6c-.6.5-1.4.7-2.6.5-.4 1.9 2.1.9 2.5 2.1 0 5.7-.4 11.8 1 16.2-3.8-.4-6.1.7-9.6.5.6-4-.1-9.5 3.5-10.6-.1-.9-1.7-.3-2-1zm-3.53 0c-1.4.15-1.5-3.54-.6-4.02 2.1.1 1.6 3.4.5 4.1zm-1.1 6.57c.5-2.03.2-2 .5-4.5 1.5.1 1.7 5.1-.5 4.55zM56.6 54c-1.76.35-1.83-1.77-1.02-2.53 1.75-.35 1.8 1.77 1 2.53zm0-7.57c.2 1.06-.35 1.34-.5 2.03-1.18.15-.58-1.46-1.53-1.52.16-.67 1.26-.4 2.02-.5zm-1.52 24.7c1-.2.75 2.3-.5 1.52.27-.4.53-.82.5-1.5zm-4.52-24.7c.2 1.72-2.9 2.13-2.5 0h2.6zm-6.57.5c-.2 1.46-2.2 1.2-2.5 2.52-1.5-1.12.5-3.1 2.5-2.52zm-3 5.05c1.5-1.36 3-2.72 4.5-4.04-.2-.8.5-.87.5-1.5h1.5c.6 2.52-1.8 1.96-2.1 3.52.1.82-.5.88-.5 1.52.1 2.23.8 3.9.5 6.57-1.8.05-1.9 1.86-4.1 1.5.2-2.84-.9-4.5-.5-7.56zm.5 21.7v-10.6c1.3-1.22 2.6-2.4 4-3.53 1.9 3.25 1.2 9.25 3 12.62-1.8 1.03-5 .73-7 1.52zm121.2 73.7c-.7 6.34-1.1 13.07-2.5 18.66-19.2.8-40.1.04-59.1 1-1.3.3-1.8-.2-1.5-1.5-1.7 0-1.7 1.64-3.6 1.5 1.3-2.2 2.9-5.95 1-8.56-5.3.08-5.3 5.46-7.6 8.58-4.6-.34-7.6.86-12.1.5 1.2-4.68 4.9-6.78 6-11.6-2.6-3.65-6.6.92-8.1 3.03-1.4 3.2-3.7 5.4-5.1 8.5h-6.5c1.6-3.1 3.2-6.2 5-9.1 1.1-3.4 4.1-5 4.5-9.1-1.1-1.9-2.8-.2-4.6 0-.8 1.2-1.8 2.2-2.5 3.5-1.5 2.5-3.3 4.7-4.5 7.6-1.2 1.4-2.3 0-3.6 1.5-2.6 1.8-3.9 4.9-6.6 6.5-1.2-.4.2-2.4 1-2.6.3-1.2-.7-3.7.5-4.1.4-2.5 1.4-4.3 2.5-6.1.8-5 3.4-8 4.5-12.6-3.7.6-4.4 4.3-6.5 6.5-1.4 2.9-3.6 5.1-4.5 8.6-1.1-.9-.1-3.9-.5-5.6.9-3.9 2-7.5 2.6-11.6.9-1.5 1.1-3.6 1.5-5.6 1.1-1.4.3-4.1-.5-5.1-1.5.2-2.5.9-3.1 2-1.3-.2-1.3 3.3-2 2-.3-17.2-3-32-3.1-49.5.2-2.2-1.2-2.9-1.5-4.6 10.84.2 20.8.6 31.82 1.5-.6.9-1.33 1.7-2.03 2.5-.94.4-1.5 1.1-2.5 2-4 11-6.46 26.5-4 40.9 1.5 3.8 3.9 6.8 6.5 9.5 6 3.2 10.9 7.6 16.7 11.1 11.32 2.4 25.6 2.5 36.9 0 1.53-.8 3.2-1.5 4.5-2.5 9.05-8.2 18.3-16.3 19.7-32.3v-9c-1.3-10.6-4.6-19.3-11.66-24.2 2.2-1.5 7.3.3 11.1.5 1.5.1 3 .1 4.56 0 2.7-.2 6.2-.4 9.6 0 1 1.2.8 3.6 1.5 5-.4 11.2-1.22 21.9-1 33.8.7 3 .9 6.5 1.57 9.6-.6 6.4-1.6 12.5-3.1 18.1zm2.5-74.2c-4.3-.8-8.2-1.9-12.7-2.52.5-2.2 5.3-.06 6.5-1.5 2.6-1.48 2-6.12 2.1-10.1.2-2.3.7-4.28.5-7.07-2.7-6.4-11.9-2.8-19.2-3.1-1.5 4.7-3.1 11.9-2 17.6 1.1 3.2 6.8 1.9 10.1 3-1 2.2-4.6.4-6.6.5-2-.6-4.7-.4-6.6-1-15.2.5-28.5 0-43.4 1 .7-8.3.4-16.4-.5-24.3h20.7c-2.3 2.4-6.1 3.4-8.6 5.5-2.9 1.6-5.8 3.3-7.6 6 1.7.9 3.6-1.6 5-2.5 2.3-.5 3.2-2.5 5.5-3 2.8-2.9 7.3-4.2 11.1-6.1 2.5-.2 4.6.1 6.6.5 8.5 0 16.3.8 25.2.5 4.1 1 9.6.5 13.1 2 .7 2 1.5 3.8 2 6 .1 6.6-1 12.1-1.5 18.2zm-38.9-24.73c.7-.32-.1-.6 0 0zm0 0c-3.5 1.02-6.8 2.3-9.1 4.54 3.2-1.4 7-2.1 9-4.6zm7.1 4.04c.7-.4-.1-.6 0 0zm-11.6 6c4.8-1.1 7.8-4 11.6-6.1-2.9.1-4 2.1-6.6 2.5-1.5 1.4-4 1.7-5.1 3.5zm-4.5-5.5c-.8.3 0 .6 0 0zm-4.6 4c.7-.3-.1-.6 0 0zm-.5.5c.4.1.4-.2.5-.5-.5-.1-.5.2-.5.5zm-.5.5c.4.1.4-.2.5-.5-.5-.1-.5.2-.5.5zm-5.6 4c2.3-.9 4-2.3 5.5-4.1-2.3.8-4.1 2.3-5.5 4zm15.1 6.5c3.5-.4 5-2.8 8.1-3.6 1.9-2 5.2-2.6 6.5-5.1-3.7.2-5.1 2.7-8.1 3.6-1.9 2-5 2.8-6.6 5.1zM106.1 62c-2.1-.5-.1 1.5 0 0zm-3.54 2.5c.2.13.8-.26.5-.5-.1-.16-.7.23-.5.5zm18.7 4.03c-.7.3.1.6 0 0zm-7.6 12.1c-1.4-1.6-4.5-1.6-6.5-2.6-4.6-.3-8.1.6-11.6 1.5l-6 3c-1.77 1.1-2.9 2.8-5 3.5-1.4 1.5-2.4 3.4-4.6 4.02-.05 1.47-1.17 1.86-2.04 2.5-.6.77-.63 2.1-1.5 2.53-.06.8.2 2-.5 2.1.72 10 1.93 19.6 4.54 27.73 1.9 4.1 6.5 5.6 9.6 8.6 3.9 2 8.8 2.9 14.1 3.5 1.85-.3 3.7-.7 6.06-.5 8-1.4 13.9-4.9 18.7-9.6.6-1.8 1.62-3.3 3-4.5-1.7-4.5 1.9-7.3 3-10.6 0-9-1.36-16.5-4.07-22.7-1.7-3.8-6.1-5-9.1-7.5-.4-.1-1 0-1-.5-1.8-.9-4.9-1.6-7.1-.5zM91 109.4c-.75-.42-.73-1.62-1-2.5 1.7-.54.8 1.55 1 2.5zm.5 2.03c.27-.8.53-.05.5.5-.26.77-.52.02-.5-.5zm3.03-13.64c.1-.6.5-.3.5 0-.08.5-.5.3-.5 0zm11.12-14.2c-1.36 1.7.27 3.8.5 5.5-2.02-.3-3.8-5.9-.5-5.6zm2.52 26.2c-.26-.3.37-.7.5-.5.27.2-.36.6-.5.5zm5.05 19.2c.23-.8.44 0 1 0-.1.6-1 .5-1 0zm14.68-17c-1.56-.4-.97 1.3-2.53 1 .46-1.1.8-2.3 1.52-3.1.8.1 1.1.8 1 2zm-7.58-25.3c1.4.8 2.94 1.4 4.04 2.5.56 1.4 1.6 2.4 2.52 3.5.4 5.2 1.2 10 1 15.7-1.7.7-2.9 1.8-4.53 2.6-5.2 0-9.04-1.4-12.62-3-1.14-1.8-2.37-3.4-3.54-5.1v-7.1c1.1-1.3 2.1-2.6 3-4.1 1.5-.9 3.4-1.4 3-4.1-.3-.4-.5-.9-.5-1.6 1 .3 1.6 1 2.5 1.5 2.1.1 2.7-1.3 5-1z"/></svg>